<?xml version="1.0"?>
<svg width="640" height="480" xmlns="http://www.w3.org/2000/svg" xmlns:svg="http://www.w3.org/2000/svg">
 <!-- Created with SVG-edit - https://github.com/SVG-Edit/svgedit-->

 <g class="layer">
  <title>Layer 1</title>
  <rect fill="#2b2bd8" height="350" id="svg_1" stroke="#000000" stroke-width="0" transform="matrix(1 0 0 1 0 0)" width="350" x="0.67" y="0"/>
  <circle cx="175" cy="175" fill="#00c7ff" id="svg_15" r="150" stroke="#000000" stroke-linecap="null" stroke-linejoin="null" transform="matrix(1 0 0 1 0 0)"/>
  <path d="m174.52,126.24c-25.86,0 -46.82,20.87 -46.82,46.64c0,25.75 20.96,46.64 46.82,46.64c5.93,0 11.54,-1.22 16.76,-3.23l10.03,15.35l16.3,-10.57l-9.97,-15.25c8.46,-8.44 13.7,-20.09 13.7,-32.94c0,-25.78 -20.96,-46.64 -46.82,-46.64zm-0.18,-126.24c-96.28,0 -174.33,77.78 -174.33,173.68c0,95.91 78.05,173.66 174.33,173.66c96.28,0 174.33,-77.75 174.33,-173.66c0,-95.9 -78.05,-173.68 -174.33,-173.68zm122.04,231.15c-2.89,6.02 -6.15,11.83 -9.91,17.33l-37.88,-8.14c-5.77,6.29 -12.34,11.88 -19.6,16.55l1.43,38.26c-6.08,2.75 -12.33,5.03 -18.82,6.81l-23.45,-30.04c-4.46,0.61 -9,1.03 -13.63,1.03c-4.27,0 -8.47,-0.35 -12.61,-0.88l-23.33,29.87c-6.49,-1.8 -12.77,-4.09 -18.83,-6.8l1.4,-37.59c-7.6,-4.76 -14.49,-10.51 -20.54,-17.05l-36.87,7.87c-3.75,-5.45 -6.99,-11.28 -9.91,-17.3l25.05,-27.59c-2.71,-8.4 -4.25,-17.34 -4.62,-26.56l-33.2,-17.49c0.66,-6.73 1.98,-13.23 3.61,-19.63l36.99,-5.1c3.48,-8.39 8.1,-16.15 13.61,-23.2l-14.18,-34.64c4.79,-4.65 9.96,-8.89 15.39,-12.79l31.94,19.98c7.8,-4.03 16.18,-7.09 25.01,-8.96l11.61,-35.86c3.33,-0.25 6.66,-0.5 10.04,-0.5c3.38,0 6.72,0.26 10.04,0.5l11.71,36.18c8.64,1.95 16.8,4.97 24.42,8.96l32.43,-20.28c5.46,3.9 10.64,8.14 15.41,12.79l-14.59,35.68c5.13,6.74 9.51,14.11 12.81,22.05l38.2,5.27c1.62,6.39 2.96,12.92 3.62,19.63l-34.39,18.11c-0.41,8.67 -1.8,17.09 -4.26,25.09l25.86,28.47z" fill="#2b2bd8" id="svg_14" stroke="#000000" stroke-linecap="null" stroke-linejoin="null" stroke-width="0" transform="matrix(1 0 0 1 0 0) matrix(1 0 0 1 0 0)"/>
  <circle cx="175" cy="175" fill="#2b2bd8" id="svg_4" r="75" stroke="#000000" stroke-linecap="null" stroke-linejoin="null" stroke-width="0"/>
  <text fill="#ffffff" font-family="Sans-serif" font-size="24" id="svg_5" stroke="#000000" stroke-dasharray="null" stroke-linecap="null" stroke-linejoin="null" stroke-width="0" text-anchor="middle" x="175" xml:space="preserve" y="125">N</text>
  <text fill="#ffffff" font-family="Sans-serif" font-size="24" id="svg_6" stroke="#000000" stroke-dasharray="null" stroke-linecap="null" stroke-linejoin="null" stroke-width="0" text-anchor="middle" transform="matrix(1 0 0 1 0 0)" x="173.67" xml:space="preserve" y="227">W</text>
  <text fill="#ffffff" font-family="Sans-serif" font-size="24" id="svg_7" stroke="#000000" stroke-dasharray="null" stroke-linecap="null" stroke-linejoin="null" stroke-width="0" text-anchor="middle" transform="matrix(1 0 0 1 0 0)" x="175" xml:space="preserve" y="173">E</text>
  <text fill="#ffffff" font-family="Times" font-size="12" id="svg_8" letter-spacing="5" stroke="#000000" stroke-dasharray="null" stroke-linecap="null" stroke-linejoin="null" stroke-width="0" text-anchor="middle" transform="matrix(1 0 0 1 0 0)" x="175.33" xml:space="preserve" y="140">Nirmal</text>
  <text fill="#ffffff" font-family="Times" font-size="12" id="svg_9" letter-spacing="5" stroke="#000000" stroke-dasharray="null" stroke-linecap="null" stroke-linejoin="null" stroke-width="0" text-anchor="middle" transform="matrix(1 0 0 1 0 0)" x="176" xml:space="preserve" y="188">Engineering</text>
  <text fill="#ffffff" font-family="Times" font-size="12" id="svg_10" letter-spacing="5" stroke="#000000" stroke-dasharray="null" stroke-linecap="null" stroke-linejoin="null" stroke-width="0" style="cursor: move;" text-anchor="middle" transform="matrix(1 0 0 1 0 0)" x="174.66" xml:space="preserve" y="242">Works</text>
 </g>
</svg>